<svg width="2500" height="762" viewBox="0 0 2500 762" fill="none" xmlns="http://www.w3.org/2000/svg">
<path d="M552.16 614.997C552.16 663.717 634.798 666.996 634.798 614.997V43.947C634.859 31.3768 626.061 5.53352 596.937 0.380479C567.085 -1.72755 544.272 22.1638 536.688 39.0283L305.7 415.902C290.26 441 280.552 448.723 261.105 449.631H189.752C165.907 449.631 156.133 473.992 138.603 499.288L81.0842 584.079V232.736L250.001 402.317C277.123 425.037 322.993 366.246 295.507 336.499L84.7247 123.116C55.965 98.9909 -1.19016 123.116 0.448049 182.845V613.123C2.63233 647.555 18.2863 655.753 37.2167 655.753H106.385C125.316 655.753 138.603 641.465 152.983 618.979L215.781 528.098H285.86C327.361 528.098 345.979 505.031 365.768 468.604L550.521 170.196L552.16 614.997Z" fill="#4D4DFF"/>
<path d="M815.095 661.573C798.594 661.573 784.035 656.965 771.416 647.75C758.798 638.049 748.849 625.923 741.569 611.371C734.289 596.335 730.649 580.571 730.649 564.079C730.649 537.887 735.017 515.818 743.753 497.871C752.489 479.924 764.379 464.888 779.424 452.762C794.954 440.151 812.669 429.237 832.567 420.021C852.95 410.805 874.305 401.832 896.629 393.101V363.271C896.629 346.295 895.659 332.228 893.717 321.072C891.776 309.916 887.651 301.67 881.342 296.335C875.518 290.514 866.539 287.604 854.406 287.604C843.729 287.604 834.993 290.029 828.199 294.88C821.89 299.73 817.279 306.763 814.367 315.979C811.455 324.71 809.999 335.138 809.999 347.265V368.364L732.833 365.454C733.804 318.89 744.481 284.694 764.864 262.867C785.248 240.555 816.794 229.399 859.502 229.399C901.24 229.399 930.844 240.797 948.316 263.594C965.788 286.392 974.523 319.375 974.523 362.544V554.621C974.523 567.717 974.766 580.328 975.251 592.455C976.222 604.581 977.193 615.979 978.163 626.65C979.619 636.836 980.833 646.537 981.803 655.753H910.461C909.005 647.992 907.064 638.291 904.637 626.65C902.696 614.524 901.24 603.611 900.269 593.91C895.416 610.401 885.952 625.923 871.878 640.474C858.289 654.54 839.361 661.573 815.095 661.573ZM845.671 594.637C853.436 594.637 860.716 592.455 867.51 588.089C874.305 583.724 880.371 578.873 885.71 573.538C891.048 567.717 894.688 563.109 896.629 559.714V440.393C884.496 447.184 873.091 453.974 862.414 460.765C851.737 467.556 842.273 474.831 834.023 482.592C826.258 489.868 819.949 498.356 815.095 508.057C810.727 517.273 808.543 527.944 808.543 540.07C808.543 557.046 811.698 570.385 818.007 580.086C824.316 589.787 833.538 594.637 845.671 594.637Z" fill="#4D4DFF"/>
<path d="M1080.94 655.753V235.219H1158.83V294.88C1174.36 269.172 1189.89 251.953 1205.42 243.223C1220.96 234.492 1236.49 230.126 1252.02 230.126C1253.96 230.126 1255.66 230.126 1257.11 230.126C1259.05 230.126 1261.48 230.369 1264.39 230.854V316.707C1258.57 314.282 1251.77 312.341 1244.01 310.886C1236.73 308.946 1229.21 307.976 1221.44 307.976C1209.31 307.976 1198.14 310.886 1187.95 316.707C1178.25 322.042 1168.54 332.713 1158.83 348.72V655.753H1080.94Z" fill="#4D4DFF"/>
<path d="M1343.22 655.025V65.6963H1421.12V417.111L1534.68 235.219H1616.22L1517.21 399.649L1613.31 655.753H1535.41L1456.79 440.393L1421.12 494.233V655.025H1343.22Z" fill="#4D4DFF"/>
<path d="M1676.43 761.25V701.59C1695.36 701.59 1710.4 700.619 1721.56 698.679C1732.73 697.224 1740.73 694.071 1745.59 689.221C1750.44 684.856 1752.87 678.55 1752.87 670.304C1752.87 665.939 1751.17 656.238 1747.77 641.202C1744.37 626.165 1740.73 610.159 1736.85 593.182L1652.41 235.219H1731.03L1787.81 549.528L1842.41 235.219H1921.03L1820.57 679.035C1816.2 699.407 1808.19 715.413 1796.55 727.054C1784.9 739.181 1769.85 747.911 1751.41 753.247C1733.45 758.582 1711.62 761.25 1685.89 761.25H1676.43Z" fill="#4D4DFF"/>
<path d="M2113.66 661.573C2080.65 661.573 2055.18 655.268 2037.22 642.657C2019.26 629.56 2006.64 610.644 1999.36 585.906C1992.57 560.684 1989.17 529.884 1989.17 493.505V397.467C1989.17 360.118 1992.81 329.075 2000.09 304.338C2007.37 279.601 2019.99 260.927 2037.95 248.316C2056.39 235.704 2081.63 229.399 2113.66 229.399C2149.09 229.399 2175.05 236.674 2191.55 251.226C2208.54 265.777 2219.7 286.877 2225.04 314.524C2230.38 341.687 2233.05 374.427 2233.05 412.746V446.941H2067.07V531.339C2067.07 548.316 2068.52 562.139 2071.43 572.81C2074.83 583.481 2079.93 591.484 2086.72 596.82C2094 601.67 2103.22 604.096 2114.38 604.096C2126.03 604.096 2134.77 601.428 2140.59 596.092C2146.9 590.272 2151.03 582.269 2152.97 572.083C2155.39 561.412 2156.61 549.043 2156.61 534.977V509.512H2232.32V525.518C2232.32 567.717 2223.34 600.943 2205.38 625.195C2187.43 649.447 2156.85 661.573 2113.66 661.573ZM2067.07 404.742H2156.61V366.909C2156.61 349.447 2155.64 334.896 2153.7 323.255C2151.75 311.129 2147.63 302.155 2141.32 296.335C2135.5 290.029 2126.03 286.877 2112.93 286.877C2100.31 286.877 2090.6 289.787 2083.81 295.607C2077.5 301.428 2073.13 311.371 2070.71 325.438C2068.28 339.019 2067.07 357.936 2067.07 382.188V404.742Z" fill="#4D4DFF"/>
<path d="M2444.81 661.573C2422.98 661.573 2405.26 657.451 2391.67 649.205C2378.57 640.959 2368.86 629.318 2362.55 614.282C2356.73 599.245 2353.82 581.541 2353.82 561.169V286.877H2309.41V235.219H2353.82V112.261H2431.71V235.219H2499.41V286.877H2431.71V556.076C2431.71 572.568 2434.38 584.451 2439.72 591.727C2445.06 598.518 2455.25 601.913 2470.29 601.913C2474.18 601.913 2478.54 601.67 2483.4 601.185C2488.74 600.7 2493.83 600.215 2498.69 599.73V657.208C2488.98 658.663 2480 659.633 2471.75 660.118C2463.5 661.088 2454.52 661.573 2444.81 661.573Z" fill="#4D4DFF"/>
</svg>
